<?xml version="1.0" standalone="no"?>
<!DOCTYPE svg PUBLIC "-//W3C//DTD SVG 1.1//EN" "http://www.w3.org/Graphics/SVG/1.1/DTD/svg11.dtd" >
<!--
2017-6-25: Created.
-->
<svg xmlns="http://www.w3.org/2000/svg">
<metadata>
Created by FontForge 20090622 at Sun Jun 25 12:31:26 2017
 By sato

</metadata>
<defs>
<font id="icons" horiz-adv-x="512" >
  <font-face 
    font-family="icons"
    font-weight="500"
    font-stretch="normal"
    units-per-em="512"
    panose-1="2 0 6 9 0 0 0 0 0 0"
    ascent="448"
    descent="-64"
    bbox="-2.55957 -77.4766 1441.69 448"
    underline-thickness="25.6"
    underline-position="-51.2"
    unicode-range="U+E001-U+E025"
  />
    <missing-glyph />
    <glyph glyph-name="age" unicode="&#xe007;" 
d="M175.158 434.531h114.527l168.422 -485.047h-107.789l-33.6855 101.055h-181.895l-33.6855 -101.055h-101.053zM168.422 131.375h121.262l-60.6309 188.633zM855.58 286.32c-6.73633 33.6797 -26.9473 53.8984 -53.8926 67.3672
c-13.4746 6.73438 -33.6855 13.4688 -53.8945 13.4688c-40.4219 0 -74.1055 -13.4688 -94.3164 -47.1562c-26.9453 -26.9453 -40.4199 -74.1016 -40.4199 -134.734s13.4746 -101.055 40.4199 -128c26.9473 -26.9531 60.6328 -40.4219 94.3164 -40.4219
s60.6309 6.73438 80.8418 26.9453c20.2109 20.2188 33.6855 47.1562 40.4219 74.1094h-114.527v80.8359h202.105v-262.734h-67.3671l-13.4746 60.6328c-20.2109 -20.2188 -40.4219 -40.4219 -53.8945 -47.1562c-26.9473 -13.4688 -60.6309 -26.9531 -101.053 -26.9531
c-67.3691 0 -114.527 20.2188 -154.947 67.375c-40.4199 47.1484 -67.3672 107.781 -67.3672 181.891c0 80.8359 20.209 141.469 67.3672 188.633c40.4219 47.1562 101.053 74.1016 168.422 74.1016c60.6309 0 107.789 -13.4688 148.211 -47.1562
c40.4219 -33.6797 60.6309 -67.3672 67.3692 -114.523h-94.3204v13.4766zM1428.21 346.953h-256v-101.055h235.789v-80.8359h-235.789v-128.008h269.473v-87.5781h-370.525v485.047h357.053v-87.5703z" />
    <glyph glyph-name="bag" unicode="&#xe006;" 
d="M334.367 134.53c0 -17.415 -10.4492 -31.3467 -31.3467 -31.3467c-17.415 0 -31.3467 13.9316 -31.3467 31.3467v13.9326c0 17.415 13.9316 31.3467 31.3467 31.3467s31.3467 -13.9316 31.3467 -31.3467v-13.9326zM351.782 117.115v0h208.979
c10.4492 0 24.3809 7.62939e-06 34.8301 6.9668v-139.32c0 -27.8633 -20.8975 -48.7617 -48.7617 -48.7617h-484.136c-27.8643 0 -48.7627 20.8975 -48.7627 48.7617v139.32c10.4492 -3.4834 20.8984 -6.9668 34.8301 -6.9668h205.497
c6.96582 -20.8975 24.3809 -38.3125 48.7617 -38.3125c20.8975 0 41.7959 17.415 48.7617 38.3125zM337.851 193.741c-13.9326 17.415 -59.2109 17.415 -69.6602 -3.48242c0 0 -17.415 -20.8984 -17.415 -34.8301h-202.014c-27.8633 0 -48.7617 20.8975 -48.7617 48.7617
v114.938c0 27.8643 20.8984 48.7627 48.7617 48.7627h118.422c6.96582 45.2783 45.2793 80.1084 90.5576 80.1084h90.5586c45.2783 0 83.5918 -34.8301 94.04 -80.1084h114.939c24.3809 0 48.7617 -20.8984 48.7617 -48.7627v-111.455
c0 -27.8643 -20.8984 -48.7627 -48.7617 -48.7627h-202.014c-3.4834 13.9326 -6.96582 20.8984 -17.415 34.8301zM212.463 367.892h184.599c-6.96582 20.8975 -24.3809 34.8291 -45.2793 34.8291h-94.041c-20.8975 0 -38.3125 -13.9316 -45.2783 -34.8291z" />
    <glyph glyph-name="headset" unicode="&#xe003;" 
d="M512 205.474c0 -43.1162 -24.2529 -78.1475 -61.9785 -94.3154c-13.4746 -67.3691 -70.0635 -123.958 -145.517 -142.821c-2.69434 -18.8633 -18.8623 -32.3369 -37.7256 -32.3369h-40.4219c-21.5576 0 -37.7256 16.168 -37.7256 37.7266v8.08398
c0 18.8633 16.168 35.0312 37.7256 37.7266h43.1162c13.4736 0 26.9473 -5.38965 32.3369 -16.1689c56.5898 13.4736 99.7051 53.8945 115.874 102.4h-8.08496c-5.38867 0 -8.08398 5.38965 -8.08398 8.08398v188.632c0 2.69434 0 5.38965 2.69531 5.38965
c-24.2529 53.8945 -83.5371 94.3154 -156.295 94.3154s-132.042 -37.7266 -156.295 -94.3154h13.4736s8.08398 -5.38965 8.08398 -8.08496v-188.631c0 -5.38965 -5.38965 -8.08496 -8.08398 -8.08496c-59.2842 0 -105.095 45.8105 -105.095 102.4
c0 26.9473 13.4736 53.8945 32.3369 72.7578c13.4736 94.3154 105.095 169.769 215.579 169.769c102.399 0 191.326 -67.3682 210.189 -153.6c32.3369 -18.8633 53.8945 -51.2002 53.8945 -88.9268z" />
    <glyph glyph-name="money" unicode="&#xe009;" 
d="M560.355 246.045c0 -39.8223 -19.9111 -76.8008 -51.2002 -105.245v8.5332c0 99.5557 -62.5771 184.89 -150.755 227.556c17.0664 5.68945 34.1328 8.5332 51.1992 8.5332c82.4893 0 150.756 -62.5771 150.756 -139.377zM409.6 448
c119.467 0 216.178 -91.0225 216.178 -201.955c0 -82.4893 -56.8887 -153.601 -130.844 -184.89c5.68848 17.0674 11.378 34.1338 14.2217 54.0449c45.5117 28.4443 73.9561 76.7998 73.9561 130.845c0 88.1777 -76.7998 159.288 -170.667 159.288
c-28.4443 0 -54.0439 -5.68848 -76.7998 -17.0664c-19.9111 5.68848 -39.8223 11.3779 -59.7334 14.2227c36.9775 28.4443 82.4893 45.5107 133.688 45.5107zM233.244 368.355c128 0 233.245 -96.7109 233.245 -216.178s-105.245 -216.178 -233.245 -216.178
s-233.244 96.7109 -233.244 216.178s105.244 216.178 233.244 216.178zM233.244 -18.4893c102.4 0 184.89 76.8008 184.89 170.667c0 93.8672 -82.4893 170.667 -184.89 170.667c-102.399 0 -184.889 -76.7998 -184.889 -170.667
c0 -93.8662 82.4893 -170.667 184.889 -170.667zM233.244 302.934c91.0225 0 164.979 -68.2666 162.134 -150.756c0 -82.4893 -71.1113 -150.756 -162.134 -150.756c-88.1777 0 -162.133 68.2666 -162.133 150.756s71.1113 150.756 162.133 150.756zM278.756 152.178
h-11.3779l31.2891 51.2002c5.68848 5.68848 14.2217 19.9111 17.0664 22.7559h-39.8223l-11.3779 -22.7559l-34.1328 -56.8887l-34.1338 56.8887c-5.68848 11.3779 -8.5332 17.0664 -8.5332 22.7559h-39.8223c2.84473 -2.84473 8.5332 -11.3779 14.2227 -22.7559
l31.2881 -51.2002h-11.377c-8.53418 0 -14.2227 2.84473 -22.7559 2.84473v-25.6006c5.68848 2.84473 11.3779 2.84473 22.7559 2.84473h25.5996l8.5332 -11.3779v-5.68848h-34.1328c-8.53418 0 -14.2227 2.84473 -22.7559 2.84473v-25.6006
c5.68848 2.84473 11.3779 2.84473 22.7559 2.84473h34.1328v-14.2227c0 -11.377 -2.84473 -19.9111 -2.84473 -28.4443h34.1338c-2.84473 8.5332 -2.84471 14.2227 -2.84471 28.4443v14.2227h34.1338c8.5332 0 14.2217 -2.84473 22.7549 -2.84473v25.6006
c-5.68848 -2.84473 -11.3779 -2.84473 -22.7549 -2.84473h-34.1338v5.68848l8.53322 11.3779h25.6006c8.5332 0 14.2217 -2.84473 22.7549 -2.84473v25.6006c-5.68848 -2.84473 -11.377 -2.84473 -22.7549 -2.84473z" />
    <glyph glyph-name="occ1" unicode="&#xe011;" 
d="M277.76 80.6396c2.56055 -17.9199 -5.12012 -42.2393 -19.2002 -56.3193l-38.3994 -38.4004c-7.67969 -7.67969 -17.9199 -11.5195 -28.1602 -11.5195s-20.4805 3.83984 -29.4404 12.7998l-38.3994 38.3994c-12.7998 12.8008 -20.4805 37.1201 -16.6406 56.3203
l40.9609 241.92c0 1.28027 0 3.83984 1.2793 6.40039c-2.55957 2.55957 -3.83984 6.39941 -5.12012 10.2402l-8.95996 25.5996c-3.83984 11.5195 -2.55957 21.7598 3.83984 30.7197c6.40039 7.68066 16.6406 12.7998 28.1602 12.7998h48.6406
c11.5195 0 21.7598 -3.83984 28.1602 -12.7998c5.11914 -8.95996 7.67967 -19.2002 3.83983 -30.7197l-8.95995 -25.5996c-1.28027 -3.84082 -2.56053 -6.40039 -5.1201 -10.2402c0 -1.28027 1.27928 -3.83984 1.27928 -6.40039zM167.68 369.92
c0 0 0 -1.28027 -1.2793 -2.55957l7.67969 -23.04c2.55957 -6.40039 10.2402 -12.8008 16.6396 -12.8008c6.40039 0 14.0801 6.40039 16.6406 12.8008l7.67969 23.04v2.55957c0 1.28027 0 1.28027 -2.55957 1.28027h-42.2402
c-1.28027 0 -2.56055 -1.28027 -2.56055 -1.28027zM232.96 49.9199c5.12012 6.40039 8.95993 19.2002 7.67966 26.8799l-34.5596 206.08c-5.12012 -1.28027 -8.95996 -2.55957 -14.0801 -2.55957s-8.95996 1.2793 -15.3604 2.55957l-34.5596 -206.08
c-1.28027 -7.67969 3.83984 -21.7598 8.95996 -26.8799l34.5596 -34.5596c1.28027 -1.28027 3.84082 -2.56055 6.40039 -2.56055s5.12012 1.28027 6.40039 2.56055z" />
    <glyph glyph-name="occ10" unicode="&#xe020;" 
d="M14.0801 148.479v40.96c0 15.3604 12.7998 28.1602 28.1602 28.1602l19.2002 2.55957l33.2793 51.2002l1.28027 1.28027c5.12012 6.39941 14.0801 11.5195 23.04 11.5195h64v19.2002c0 8.95996 6.40039 16.6406 15.3604 16.6406h170.239
c8.95996 0 15.3604 -7.68066 15.3604 -16.6406v-111.359v-60.1602v-3.83984v-16.6406c0 -8.95996 -7.67969 -16.6396 -16.6396 -16.6396h-23.04c-5.12012 -16.6406 -21.7607 -30.7197 -40.96 -30.7197c-19.2002 0 -37.1201 14.0791 -42.2402 32h-52.4805h-89.5996
c-5.12012 -17.9209 -21.7598 -32 -42.2402 -32c-20.4795 0 -37.1201 14.0791 -42.2402 32h-20.4795c-8.95996 0 -16.6396 7.6797 -16.6396 16.6397v20.4795c2.55957 7.68066 8.95996 14.0801 16.6396 15.3604zM303.36 85.7598c12.7998 0 21.7598 10.2402 21.7598 21.7598
s-10.2402 21.7598 -21.7598 21.7598c-12.8008 0 -21.7607 -10.2402 -21.7607 -21.7598s8.95996 -21.7598 21.7607 -21.7598zM153.6 220.159c1.28027 0 2.56055 1.28027 2.56055 2.56055v39.6797c0 1.28027 -1.28027 2.56055 -2.56055 2.56055h-34.5596
c-1.28027 0 -1.28027 0 -1.28027 -1.28027l-26.8799 -39.6797c-1.28027 -1.28027 0 -2.56055 1.28027 -2.56055l61.4395 -1.28027v0v0zM78.0801 85.7598c12.7998 0 21.7598 10.2402 21.7598 21.7598s-10.2402 21.7598 -21.7598 21.7598
c-12.7998 0 -21.7598 -10.2402 -21.7598 -21.7598s10.2393 -21.7598 21.7598 -21.7598z" />
    <glyph glyph-name="occ11" unicode="&#xe021;" 
d="M357.12 81.9199c15.3604 -6.39941 26.8799 -20.4795 20.4795 -37.1201c0 -23.04 -19.1992 -42.2393 -43.5195 -42.2393s-43.5205 19.1992 -43.5205 42.2393c0 16.6406 11.5205 32 26.8809 38.4004v2.55957v93.4404h-110.08v-94.7197v-2.56055
c15.3594 -6.39941 26.8799 -21.7598 26.8799 -38.3994c0 -23.04 -19.2002 -42.2402 -43.5205 -42.2402c-24.3193 0 -43.5195 19.2002 -43.5195 42.2402c0 16.6396 11.5195 32 26.8799 38.3994v2.56055v94.7197h-110.08v-94.7197v-2.56055
c15.3604 -6.39941 26.8799 -20.4795 26.8799 -38.3994c0 -23.04 -19.2002 -42.2402 -43.5195 -42.2402c-24.3203 0 -43.5205 19.2002 -43.5205 42.2402c0 16.6396 11.5205 32 26.8799 38.3994v2.56055v111.359c0 8.95996 7.68066 16.6406 17.9199 16.6406h128v87.04v3.83984
c-15.3594 6.39941 -26.8799 20.4795 -26.8799 38.3994c0 23.04 19.2002 42.2402 43.5205 42.2402c24.3193 0 43.5195 -19.2002 44.7998 -42.2402c0 -16.6396 -11.5205 -32 -26.8799 -38.3994v-3.83984v-87.04h128c10.2402 0 17.9199 -7.68066 17.9199 -16.6406v-111.359
v-2.56055zM167.68 341.76c0 -12.7998 10.2402 -24.3193 26.8799 -25.5996h1.28027h1.28027c12.7998 1.28027 24.3203 12.7998 24.3203 25.5996c0 14.0801 -12.8008 25.6006 -26.8809 25.6006c-15.3594 0 -26.8799 -11.5205 -26.8799 -25.6006zM74.2402 43.5205
c0 14.0801 -11.5205 24.3193 -26.8799 25.5996h-1.28027h-1.28027c-14.0801 -1.28027 -24.3193 -12.7998 -24.3193 -25.5996c0 -14.0801 12.7998 -25.6006 26.8799 -25.6006c15.3594 0 26.8799 11.5205 26.8799 25.6006zM220.16 43.5205
c0 12.7998 -8.95996 21.7598 -23.04 24.3193c-1.28027 -1.2793 -3.83984 -1.2793 -5.12012 -1.2793s-3.83984 1.2793 -5.12012 1.2793c-11.5195 -2.55957 -20.4795 -12.7998 -20.4795 -24.3193c0 -14.0801 12.7998 -25.6006 26.8799 -25.6006
c15.3594 0 26.8799 11.5205 26.8799 25.6006zM339.2 19.2002c14.0801 0 26.8799 10.2402 24.3193 25.5996c0 14.0801 -10.2393 24.3203 -24.3193 25.6006h-1.28027h-1.28027c-14.0801 -1.28027 -24.3193 -12.7998 -24.3193 -25.6006
c0 -14.0791 12.7998 -25.5996 26.8799 -25.5996z" />
    <glyph glyph-name="occ12" unicode="&#xe022;" 
d="M142.08 98.5596l-102.4 64c-38.3994 24.3203 -49.9199 76.7998 -26.8799 116.479c15.3604 25.6006 40.96 40.9609 70.4004 40.9609c14.0801 0 29.4395 -5.12012 42.2402 -12.8008l107.52 -67.8399l-17.9199 -11.5195
c-44.7998 -28.1602 -62.7197 -75.5205 -69.1201 -111.36zM34.5596 266.239c-16.6396 -28.1602 -8.95996 -64 17.9209 -80.6396l71.6797 -46.0801c7.6797 30.7197 24.3203 70.4004 60.1602 99.8398l-72.96 46.0801c-8.95996 6.40039 -19.2002 8.95996 -29.4404 8.95996
c-19.2002 0 -37.1201 -11.5195 -47.3604 -28.1602zM346.88 162.56c35.8398 -23.04 47.3604 -72.96 26.8799 -108.8c-14.0801 -24.3203 -39.6797 -38.4004 -66.5596 -38.4004c-14.0801 0 -28.1602 3.83984 -40.96 11.5205l-102.4 64v2.55957
c2.56055 21.7598 12.7998 67.8398 46.0801 102.4c0 -1.28027 94.7197 -61.4404 94.7197 -61.4404c1.28027 -1.28027 2.56055 -1.28027 3.84082 -1.28027c2.55957 0 5.11914 1.28027 6.39941 3.84082c2.56055 3.83984 1.28027 7.67969 -2.55957 10.2393l-92.1602 57.6006
c7.67969 6.39941 17.9199 12.7998 29.4395 16.6396l1.28027 1.28027z" />
    <glyph glyph-name="occ13" unicode="&#xe023;" 
d="M368.64 279.04c8.95996 -8.95996 14.0801 -21.7598 14.0801 -35.8398c0 -11.5195 -3.83984 -20.4795 -10.2402 -29.4395c-6.39941 -8.95996 -15.3594 -15.3604 -25.5996 -19.2002v-104.96c0 -29.4404 -11.5205 -52.4805 -35.8398 -72.96
c-23.04 -19.2002 -52.4805 -29.4404 -85.7607 -29.4404c-33.2793 0 -61.4395 8.95996 -85.7598 29.4404c-24.3193 20.4795 -35.8398 44.7998 -35.8398 72.96v34.5596c-29.4395 3.83984 -53.7598 15.3604 -74.2402 34.5606c-19.1992 19.2002 -29.4395 40.96 -29.4395 66.5596
v136.96c0 5.12012 2.55957 8.95996 5.12012 11.5205c3.83984 3.83984 7.67969 5.12012 12.7998 5.12012h3.83984c3.83984 5.11914 7.67969 10.2393 12.7998 12.7998c5.12012 3.83984 11.5205 5.12012 17.9199 5.12012c10.2402 0 17.9199 -3.83984 24.3203 -10.2402
s10.2402 -15.3604 10.2402 -24.3203s-2.56055 -16.6396 -8.95996 -24.3193c-6.40039 -6.40039 -14.0801 -10.2402 -24.3203 -10.2402c-6.40039 0 -12.7998 2.55957 -17.9199 5.12012v-107.521c0 -19.2002 8.95996 -35.8398 25.5996 -48.6396
c16.6406 -14.0801 37.1201 -20.4805 61.4404 -20.4805c24.3203 0 44.7998 7.68066 61.4394 20.4805c16.6406 14.0801 25.6006 29.4395 25.6006 48.6396v107.521c-6.40039 -3.83984 -11.5205 -5.12012 -17.9199 -5.12012c-8.95996 0 -17.9199 3.83984 -24.3203 10.2402
c-6.40039 6.39941 -10.2402 15.3594 -10.2402 24.3193c0 10.2402 3.83984 17.9199 10.2402 24.3203s14.0801 10.2402 24.3203 10.2402c6.39941 0 11.5195 -1.28027 17.9199 -5.12012c5.12012 -3.83984 10.2402 -7.68066 12.7998 -12.7998h3.83986
c5.12012 0 8.95993 -1.28027 12.7998 -5.12012c3.84082 -2.56055 5.12015 -6.40039 5.12015 -11.5205v-136.96c0 -25.5996 -8.95998 -47.3594 -29.4395 -66.5596c-19.2002 -19.2002 -44.7998 -30.7207 -74.2402 -34.5606v-34.5596
c0 -19.2002 8.95996 -35.8398 25.5996 -48.6396c16.6406 -14.0801 37.1201 -20.4805 61.4404 -20.4805s44.7998 7.67969 61.4395 20.4805c16.6406 14.0791 25.6006 29.4395 25.6006 48.6396v104.96c-10.2402 3.83984 -19.2002 10.2402 -25.6006 19.2002
c-6.39941 8.95996 -10.2393 17.9199 -10.2393 29.4395c0 14.0801 5.12012 25.6006 15.3594 35.8398c10.2402 10.2402 23.04 15.3604 37.1201 15.3604s26.8799 -5.12012 37.1201 -15.3604zM343.04 231.681c3.83984 2.55957 5.12012 7.67969 5.12012 11.5195
s-1.28027 7.68065 -5.12012 11.5205c-3.83984 3.83986 -7.68066 5.12013 -12.7998 5.12013c-5.12012 0 -8.96094 -1.28027 -12.8008 -5.12013c-3.83984 -2.56055 -5.12012 -6.40038 -5.12012 -11.5205c0 -3.83984 1.28027 -7.67969 5.12012 -11.5195
s7.68066 -5.12012 12.8008 -5.12012c5.11914 0 8.95996 1.28027 12.7998 5.12012z" />
    <glyph glyph-name="occ14" unicode="&#xe024;" 
d="M276.48 268.801v0l-78.0801 -1.28027c1.2793 8.95996 2.55957 16.6396 2.55957 25.6006c0 8.95996 -1.28027 16.6396 -2.55957 24.3193h78.0801v29.4404c0 5.12012 5.11914 8.95996 10.2393 6.39941l92.1602 -53.7598c5.12012 -2.55957 5.12012 -10.2402 0 -12.7998
l-92.1602 -53.7598c-3.83984 -2.56055 -10.2393 1.2793 -10.2393 6.39941v29.4404zM106.24 115.2v0h78.0801c-1.28027 -7.67969 -2.56055 -16.6396 -2.56055 -24.3193c0 -7.68066 1.28027 -16.6406 2.56055 -24.3203h-78.0801v-29.4404
c0 -5.11914 -5.12012 -8.95996 -10.2402 -6.39941l-92.1602 53.7598c-5.12012 2.56055 -5.12012 10.2402 0 12.7998l92.1602 53.7607c3.83984 2.55957 10.2402 -1.28027 10.2402 -6.40039v-29.4404zM88.3203 203.521c-48.6406 -1.28027 -88.3203 39.6797 -88.3203 89.6006
c0 49.9199 39.6797 90.8799 88.3203 90.8799c48.6396 0 88.3193 -39.6807 88.3193 -89.6006s-39.6797 -90.8799 -88.3193 -90.8799zM39.6797 308.48c-2.55957 0 -3.83984 -2.55957 -3.83984 -3.83984v-6.40039c0 -2.55957 2.56055 -3.83984 3.83984 -3.83984h7.68066
v-6.39941h-8.95996c-1.28027 0 -2.56055 -1.28027 -2.56055 -2.56055v-6.39941c0 -2.56055 2.56055 -3.84082 5.12012 -2.56055h10.2402v-1.28027c2.55957 -10.2393 7.67969 -17.9199 15.3594 -23.04c6.40039 -5.11914 12.8008 -7.6797 20.4805 -8.95998
c10.2402 -2.55957 20.4795 0 32 2.56055l1.28028 1.28027c1.2793 2.55957 2.55956 3.83986 1.27929 6.39943l-3.83984 7.68065c-1.2793 2.55957 -2.55956 2.55957 -5.12011 2.55957c-3.83984 -1.28027 -6.39942 -1.28027 -10.2393 -2.55957
c-6.40039 -1.28027 -14.0801 -1.28027 -21.7607 3.83984c-5.12012 2.55957 -8.95996 6.39941 -11.5195 12.7998v0h20.4795c1.28027 0 2.56055 1.28027 2.56055 2.55957v6.40039c0 1.28027 -1.28027 2.55957 -2.56055 2.55957h-23.04v5.12012h23.04
c2.56055 0 3.84082 1.28027 2.56055 3.83984v6.40039c0 1.28027 -1.28027 2.55957 -2.56055 2.55957h-21.7598c2.56055 7.68066 7.67969 14.0801 15.3604 16.6406c6.39941 2.55957 12.7998 2.55957 19.2002 1.28027c3.83984 -1.28027 6.39942 -2.56055 10.2393 -2.56055
c2.56055 -1.28027 3.84081 0 5.12011 2.56055l3.83984 7.67969c0 2.55957 0 5.12012 -3.83984 6.39941c-2.55957 1.28027 -5.12012 1.28027 -7.67969 2.56055c-10.2402 3.83984 -20.4805 3.83984 -30.7197 0c-12.8008 -3.83984 -21.7607 -12.7998 -26.8799 -25.6006
c-1.28027 -2.55957 -2.56055 -5.11914 -2.56055 -7.67969h-10.2402zM295.68 180.48c48.6406 0 87.04 -40.96 88.3203 -89.5996c0 -49.9199 -39.6797 -89.6006 -88.3203 -89.6006c-48.6396 0 -88.3193 39.6807 -88.3193 89.6006s39.6797 89.5996 88.3193 89.5996z
M321.28 55.041c10.2393 12.7998 6.39941 32 -8.95996 38.3994c-5.12012 2.56055 -10.2402 3.83984 -15.3604 6.40039c-2.55957 1.28027 -5.12012 2.55957 -7.67969 5.12012c-5.12012 3.83984 -3.83984 10.2393 1.2793 12.7998
c1.28027 1.28027 3.84082 1.28028 5.12012 1.28028c7.68066 0 12.8008 -1.28028 19.2002 -3.84083c2.56055 -1.2793 3.83984 0 5.12012 2.56055c1.28027 3.83984 1.28027 6.39941 2.55957 10.2402c0 2.55957 0 3.83984 -2.55957 5.12012
c-3.83984 2.55957 -7.67969 2.55957 -11.5195 3.83984c-5.12012 1.2793 -5.12012 1.2793 -5.12012 6.39941c0 7.68066 0 7.68066 -7.68066 7.68066h-3.83984c-2.55957 0 -3.83984 0 -3.83984 -3.84082v-5.11914c0 -5.12012 0 -5.12012 -5.12012 -6.40039
c-10.2402 -5.12012 -16.6396 -11.5205 -17.9199 -24.3203c0 -10.2393 5.12012 -17.9199 14.0801 -23.04c5.12012 -3.83984 11.5195 -5.12012 16.6396 -7.67969c2.56055 -1.28027 5.12012 -2.55957 6.40039 -3.83984c5.12012 -5.12012 3.83984 -12.7998 -2.56055 -15.3604
c-2.55957 -1.28027 -6.39941 -1.28027 -10.2393 -1.28027c-6.40039 1.28027 -11.5205 2.56054 -16.6406 5.12011c-3.83984 1.28027 -3.83984 1.28027 -5.12012 -2.55957c-1.2793 -2.56055 -1.2793 -6.40039 -2.55957 -8.95996
c-1.28027 -3.83984 -1.28027 -5.12012 2.55957 -6.40039l15.3604 -3.83984c3.83984 -1.28027 3.83984 -1.28027 3.83984 -5.12012v-6.39941c0 -2.56055 1.28027 -3.84082 3.83984 -3.84082h8.95996c2.56055 0 3.84082 1.28028 3.84082 3.84082v7.67969
s1.2793 3.83984 3.83984 5.12012c5.12012 2.55957 10.2402 5.12012 14.0801 10.2402z" />
    <glyph glyph-name="occ15" unicode="&#xe025;" 
d="M371.2 28.1602c6.39941 -3.83984 11.5195 -10.2393 12.7998 -19.1992c0 -12.8008 -10.2402 -21.7607 -21.7598 -21.7607h-340.48c-12.7998 0 -21.7598 10.2402 -21.7598 21.7607c0 8.95996 5.12012 15.3594 12.7998 19.1992v185.601
c0 8.95996 7.68066 16.6396 17.9199 16.6396h81.9199v51.2002c0 3.83984 2.56054 8.95996 6.40038 11.5195l66.5596 37.1201h1.28027v61.4404c0 2.55957 2.56055 5.12012 5.12012 5.12012s5.12012 -2.56055 6.40039 -5.12012v-2.56055h35.8399
c2.55957 0 5.1201 -2.55957 5.1201 -5.12012v-26.8799c0 -2.55957 -2.56053 -5.12012 -5.1201 -5.12012h-35.8399v-21.7598h1.2793l66.5605 -37.1201c3.83984 -2.55957 6.39941 -6.39941 6.39941 -11.5195v-49.9199h81.9199c8.95996 0 16.6406 -7.68066 16.6406 -17.9199
v-185.601zM304.64 170.24v0l-1.2793 -19.2002c0 -5.11914 5.12012 -10.2393 10.2393 -10.2393h19.2002c5.12012 0 10.2402 5.12012 10.2402 10.2393v19.2002c0 5.12012 -5.12012 10.2402 -10.2402 10.2402h-17.9199c-5.12012 0 -10.2402 -5.12012 -10.2402 -10.2402z
M304.64 108.801v0l-1.2793 -19.2002c0 -5.12012 5.12012 -10.2402 10.2393 -10.2402h19.2002c5.12012 0 10.2402 5.12012 10.2402 10.2402v19.2002c0 5.12012 -5.12012 10.2393 -10.2402 10.2393h-17.9199c-5.12012 0 -10.2402 -5.11914 -10.2402 -10.2393zM243.2 170.24v0
v-19.2002c0 -5.11914 5.12013 -10.2393 10.2402 -10.2393h19.1992c5.12012 0 10.2402 5.12012 10.2402 10.2393v19.2002c0 5.12012 -5.12012 10.2402 -10.2402 10.2402h-19.1992c-5.12012 0 -10.2402 -5.12012 -10.2402 -10.2402zM243.2 108.801v0v-19.2002
c0 -5.12012 5.12013 -10.2402 10.2402 -10.2402h19.1992c5.12012 0 10.2402 5.12012 10.2402 10.2402v19.2002c0 5.12012 -5.12012 10.2393 -10.2402 10.2393h-19.1992c-5.12012 0 -10.2402 -5.11914 -10.2402 -10.2393zM192 281.601
c-15.3604 0 -28.1602 -12.7998 -28.1602 -29.4404c0 -16.6396 12.7998 -29.4395 28.1602 -29.4395s28.1602 12.7998 28.1602 29.4395c0 16.6406 -12.7998 29.4404 -28.1602 29.4404zM163.84 115.2v0l1.28027 -80.6396c0 -1.28027 0 -3.83984 1.28027 -5.12012h53.7598
c1.28027 1.28027 1.28027 3.83984 1.28027 5.12012v80.6396c0 5.12012 -5.12012 10.2402 -10.2402 10.2402h-37.1201c-5.12012 0 -10.2402 -5.12012 -10.2402 -10.2402zM101.12 170.24v0v-19.2002c0 -5.11914 5.12012 -10.2393 10.2402 -10.2393h19.1992
c5.12012 0 10.2402 5.12012 10.2402 10.2393v19.2002c0 5.12012 -5.12012 10.2402 -10.2402 10.2402h-19.1992c-5.12012 0 -10.2402 -5.12012 -10.2402 -10.2402zM101.12 108.801v0v-19.2002c0 -5.12012 5.12012 -10.2402 10.2402 -10.2402h19.1992
c5.12012 0 10.2402 5.12012 10.2402 10.2402v19.2002c0 5.12012 -5.12012 10.2393 -10.2402 10.2393h-19.1992c-5.12012 0 -10.2402 -5.11914 -10.2402 -10.2393zM40.96 170.24v0v-19.2002c0 -5.11914 5.12012 -10.2393 10.2402 -10.2393h19.2002
c5.11914 0 10.2393 5.12012 10.2393 10.2393v19.2002c0 5.12012 -5.12012 10.2402 -10.2393 10.2402h-19.2002c-5.12012 0 -10.2402 -5.12012 -10.2402 -10.2402zM40.96 108.801v0v-19.2002c0 -5.12012 5.12012 -10.2402 10.2402 -10.2402h19.2002
c5.11914 0 10.2393 5.12012 10.2393 10.2402v19.2002c0 5.12012 -5.12012 10.2393 -10.2393 10.2393h-19.2002c-5.12012 0 -10.2402 -5.11914 -10.2402 -10.2393z" />
    <glyph glyph-name="occ2" unicode="&#xe012;" 
d="M282.88 384c55.04 0 101.12 -44.7998 99.8398 -99.8398v-177.92c0 -55.04 -44.7998 -99.8398 -101.12 -99.8398h-180.479c-55.04 0 -101.12 44.7998 -101.12 99.8398v177.92c0 55.04 46.0801 99.8398 101.12 99.8398h181.76zM346.88 284.16
c0 35.8398 -28.1602 64 -64 62.7197h-78.0801v-140.8h142.08v78.0801zM101.12 348.16c-35.8398 0 -64 -28.1602 -64 -64v-76.7998h142.08v140.8h-78.0801zM37.1201 107.52c0 -35.8398 28.1602 -64 64 -64h78.0801v139.521h-142.08v-75.5205zM282.88 43.5195
c35.8398 0 64 28.1602 65.2803 64v75.5205h-143.36v-139.521h78.0801zM78.0801 266.24v16.6396h61.4395v-16.6396h-61.4395zM116.48 122.88h34.5596v-15.3604h-34.5596v-35.8398h-15.3604v35.8398h-34.5605v15.3604h34.5605v35.8398h15.3604v-35.8398zM230.4 248.32
l25.5996 25.5996l-24.3203 24.3203l11.5205 11.5195l24.3193 -24.3193l24.3203 25.5996l11.5205 -11.5205l-24.3203 -25.5996l24.3203 -24.3203l-11.5205 -11.5195l-24.3203 24.3203l-25.5996 -25.6006zM236.8 124.16v15.3594h61.4404v-15.3594h-61.4404zM236.8 89.5996
v15.3604h61.4404v-15.3604h-61.4404z" />
    <glyph glyph-name="occ3" unicode="&#xe013;" 
d="M334.08 75.5205c6.39941 0 10.2393 -8.95996 10.2393 -15.3603c0 -6.39941 -5.11914 -17.9199 -11.5195 -17.9199h-272.64v-16.6396c0 -6.40039 -8.95996 -11.5195 -15.3604 -11.5195s-17.9199 5.11914 -17.9199 11.5195v15.3604h-15.3604
c-6.39941 0 -11.5195 11.5195 -11.5195 17.9199c0 6.39941 5.12012 16.6396 11.5195 16.6396h15.3604v270.08c0 7.67969 10.2402 12.7998 17.9199 12.7998s19.2002 -5.12012 19.2002 -12.7998v-270.08h270.08zM341.76 340.48c16.6396 0 29.4404 -12.7998 29.4404 -29.4395
c0 -15.3604 -12.8008 -28.1602 -29.4404 -28.1602l-43.5195 -107.521c6.39941 -5.12012 11.5195 -14.0801 11.5195 -23.04c0 -16.6396 -12.7998 -29.4395 -29.4404 -29.4395c-16.6396 0 -30.7197 14.0801 -29.4395 30.7197l-71.6797 37.1201
c-6.40039 -5.12012 -15.3604 -7.67969 -23.04 -6.40039l-28.1602 -44.7998c3.83984 -5.12012 5.12012 -10.2402 5.12012 -16.6397c0 -16.6406 -12.8008 -29.4404 -29.4404 -29.4404s-29.4395 12.7998 -29.4395 29.4404c0 17.9199 15.3594 32 33.2793 29.4395
l28.1602 43.5205c-3.83984 5.12012 -5.12012 10.2402 -5.12012 16.6396c0 16.6406 12.7998 29.4404 29.4404 29.4404c16.6396 0 29.4395 -12.7998 29.4395 -29.4404v-1.28027l72.96 -37.1191c3.84082 2.55957 7.68066 3.83984 12.8008 5.11914l44.7998 111.36
c-5.12012 5.12012 -7.68066 12.7998 -7.68066 20.4805c0 16.6396 12.8008 29.4395 29.4404 29.4395z" />
    <glyph glyph-name="occ4" unicode="&#xe014;" 
d="M192 326.4c-16.6406 0 -30.7207 10.2402 -35.8398 25.5996c8.95996 -2.55957 21.7598 -3.83984 35.8398 -3.83984c12.7998 0 25.5996 1.28027 35.8398 3.83984c-5.12012 -15.3594 -19.2002 -25.5996 -35.8398 -25.5996zM382.72 307.2
c1.28027 -2.55957 1.28027 -5.12012 2.55957 -5.12012l-32 -62.7197c-1.2793 -3.83984 -5.11914 -5.1201 -7.67969 -5.1201h-2.55957l-35.8398 10.2402v-209.92c0 -5.12012 -3.84082 -8.95996 -8.95996 -8.95996h-209.921c-5.11914 0 -8.95996 3.83984 -8.95996 8.95996
v208.64l-35.8398 -10.2402h-2.55957c-2.56055 0 -6.40039 2.56053 -7.68066 5.1201l-32 62.7197c-1.2793 1.28027 -1.2793 3.84082 -1.2793 6.40039c1.2793 2.55957 2.55957 3.83984 5.12012 5.12012l72.96 33.2803c15.3594 5.12012 32 8.95996 47.3594 12.7998h1.28028
c3.83984 0 7.67969 -2.56055 8.95996 -6.40039c6.40039 -25.5996 29.4404 -44.7998 56.3203 -44.7998s49.9199 19.2002 55.04 44.7998c1.2793 3.83984 5.12013 6.40039 8.95998 6.40039h1.2793c15.3604 -3.83984 32 -7.67969 47.3604 -12.7998l72.96 -33.2803
c2.56055 -1.28027 3.83984 -2.56055 5.12012 -5.12012z" />
    <glyph glyph-name="occ5" unicode="&#xe015;" 
d="M192 354.561c89.5996 0 161.28 -72.96 162.56 -162.561c0 -58.8799 -32 -111.359 -80.6396 -139.52l-3.83984 83.2002v0c12.7998 2.55957 24.3203 11.5195 30.7197 21.7598c8.95996 12.7998 -6.39941 129.28 -6.39941 129.28h-7.68066v-108.801h-10.2393v108.801
h-11.5205v-108.801h-10.2402v108.801h-11.5195v-108.801h-11.5205v108.801h-10.2393s-15.3604 -116.48 -6.40039 -129.28c7.67969 -10.2402 19.2002 -19.2002 32 -21.7598l-5.1201 -97.2803c-15.3604 -6.40039 -33.2803 -8.95996 -51.2002 -8.95996
c-12.7998 0 -25.5996 2.55957 -38.3994 5.12012l-5.12012 108.8l11.5195 3.83984c20.4805 8.95996 34.5605 34.5596 34.5605 69.1201c0 37.1201 -28.1602 69.1201 -56.3203 69.1201v0v0c-28.1602 0 -56.3203 -32 -56.3203 -69.1201
c0 -34.5605 14.0801 -60.1602 34.5605 -69.1201c2.55957 -1.28027 11.5195 -3.83984 11.5195 -3.83984l-5.12012 -97.2803c-55.04 25.6006 -92.1592 81.9199 -92.1592 145.92c0 89.6006 72.96 162.561 162.56 162.561zM104.96 234.24
c-1.28027 -2.55957 -1.28027 -6.40041 -2.55957 -8.95998v-14.0801v-7.67969c0 -2.56055 1.2793 -5.12012 2.55957 -5.12012c3.83984 -10.2402 6.40039 -19.2002 10.2402 -25.6006c1.28027 -1.2793 1.28027 -2.55957 2.55957 -3.83984
c1.28027 -1.2793 1.28028 -2.55957 2.56055 -3.83984l2.55957 -2.55957v-2.56055c-1.28027 -1.2793 -1.28027 -1.2793 -2.55957 -1.2793c0 0 -1.28028 0 -2.56055 1.2793c0 1.28027 -1.2793 1.28027 -1.2793 1.28027h-1.28027
c-2.56055 1.28027 -5.12012 3.83984 -7.68066 6.40039c-8.95996 8.95996 -11.5195 17.9199 -14.0791 26.8799c0 2.55957 -1.28027 5.12012 -1.28027 8.95996v8.95996c0 6.39941 1.28027 11.5195 2.55957 15.3594c1.28027 3.84082 3.83984 7.68068 5.12012 10.2402
c1.28027 2.56055 2.56055 3.83984 2.56055 3.83984h2.55957c1.28027 -1.2793 1.28027 -1.2793 1.28027 -2.55957c0 0 -1.28027 -2.56053 -1.28027 -5.1201zM192 384c106.24 0 192 -85.7598 192 -192s-85.7598 -192 -192 -192s-192 85.7598 -192 192s85.7598 192 192 192z
M192 14.0801c97.2803 0 177.92 80.6406 177.92 177.92c0 98.5605 -80.6396 177.92 -177.92 177.92c-98.5596 0 -177.92 -79.3594 -177.92 -177.92c0 -97.2793 79.3604 -177.92 177.92 -177.92z" />
    <glyph glyph-name="occ6" unicode="&#xe016;" 
d="M381.44 303.36c0 -6.39941 -6.40039 -11.5195 -12.8008 -11.5195h-71.6797v-15.3604h71.6797c6.40039 0 11.5205 -6.40039 11.5205 -12.7998c0 -7.68066 -5.12012 -12.7998 -11.5205 -12.7998h-71.6797v-10.2402h71.6797c6.40039 0 11.5205 -6.40041 11.5205 -12.7998
c0 -7.68066 -5.12012 -12.8008 -11.5205 -12.8008h-71.6797v-16.6396h71.6797c6.40039 0 11.5205 -5.12012 11.5205 -12.7998s-5.12012 -12.7998 -11.5205 -12.7998h-71.6797v-16.6406h71.6797c6.40039 0 11.5205 -6.39941 11.5205 -12.7998
c0 -7.67969 -5.12012 -12.7998 -11.5205 -12.7998h-71.6797v-16.6396h71.6797c6.40039 0 11.5205 -6.40039 11.5205 -12.8008c0 -7.67969 -5.12012 -12.7998 -11.5205 -12.7998h-71.6797v-15.3594h71.6797c6.40039 0 11.5205 -6.40039 11.5205 -12.8008
c0 -6.39941 -5.12012 -12.7998 -11.5205 -12.7998h-71.6797v-15.3604h71.6797c6.40039 0 11.5205 -6.39941 11.5205 -12.7998c0 -7.67969 -5.12012 -12.7998 -11.5205 -12.7998h-112.64c-7.67969 0 -15.3604 6.40039 -15.3604 15.3604v321.279
c0 8.95996 6.40041 15.3604 15.3604 15.3604h113.92c6.40039 0 11.5205 -5.12012 11.5205 -12.7998s-5.12012 -12.7998 -11.5205 -12.7998h-71.6797v-16.6406h71.6797c6.40039 0 11.5205 -6.39941 11.5205 -12.7998zM212.48 98.5605
c10.2393 -8.95996 15.3594 -21.7598 15.3594 -35.8398c1.28027 -24.3203 -15.3594 -46.0801 -38.3994 -51.2002c-2.56055 -1.28027 -6.40039 -1.28027 -8.95996 -1.28027c-12.8008 0 -25.6006 5.12012 -34.5605 14.0801s-15.3604 21.7598 -15.3604 34.5606
c0 11.5195 2.56055 20.4795 7.68066 29.4394l-24.3203 42.2402l-24.3203 -42.2402c5.12012 -8.95996 7.68066 -19.2002 7.68066 -29.4394c0 -12.8008 -6.40039 -25.6006 -15.3604 -34.5606c-8.95996 -10.2402 -21.7598 -14.0801 -34.5596 -14.0801
c-2.56055 0 -6.40039 1.28027 -8.95996 1.28027c-23.04 5.12012 -39.6807 26.8799 -38.4004 51.2002c0 14.0801 6.40039 26.8799 15.3604 34.5596c8.95996 10.2402 21.7598 14.0801 34.5596 14.0801h6.40039l34.5596 60.1602l-80.6396 140.8
c-3.83984 6.40039 -5.12012 14.0801 -3.83984 21.7598c1.2793 6.40039 5.11914 12.8008 10.2393 15.3604l6.40039 5.12012c3.83984 1.28027 10.2402 0 12.7998 -5.12012l78.0801 -136.96l78.0801 135.68c2.55957 5.12012 8.95996 7.68066 12.7998 5.12012l6.40039 -1.28027
c5.12012 -3.83984 8.95996 -8.95996 10.2402 -16.6396c1.2793 -7.67969 0 -15.3604 -3.84082 -21.7598l-80.6396 -140.8l34.5596 -60.1602h6.40039c12.7998 0 25.5996 -5.12011 34.5605 -14.0801zM74.2402 61.4404c0 11.5205 -7.68066 23.04 -19.2002 25.5996h-3.83984
c-6.40039 1.28027 -12.7998 -1.2793 -17.9199 -6.39941s-7.68066 -11.5205 -7.68066 -17.9199c-1.2793 -11.5205 7.68066 -23.04 19.2002 -25.6006h3.83984c6.40039 -1.2793 12.8008 1.28027 17.9199 6.40039c5.12012 5.12012 7.68066 11.5195 7.68066 17.9199z
M113.92 158.721c7.67969 0 14.0801 6.39941 14.0801 14.0801c0 7.67969 -6.4004 14.0801 -14.0801 14.0801s-14.0801 -6.40039 -14.0801 -14.0801c0 -7.68066 6.40038 -14.0801 14.0801 -14.0801zM184.32 37.1201c11.5195 2.56055 20.4795 12.8008 19.1992 25.6006
c0 6.39941 -2.55957 12.7998 -7.67969 17.9199c-5.12012 3.83984 -11.5195 6.39941 -17.9199 6.39941h-3.83984c-11.5205 -2.55957 -19.2002 -12.7998 -19.2002 -25.5996c0 -6.40039 2.56055 -12.7998 7.67969 -17.9199c5.12012 -3.83984 11.5205 -6.40039 17.9209 -6.40039
h3.83984z" />
    <glyph glyph-name="occ7" unicode="&#xe017;" 
d="M350.72 357.12c17.9199 0 33.2803 -14.0801 32 -30.7197v-186.881c0 -16.6396 -14.0801 -30.7197 -32 -30.7197h-126.72v-28.1602h21.7598c12.7998 0 25.5996 -8.95996 25.5996 -20.4795c0 -11.5205 -10.2393 -20.4805 -21.7598 -20.4805h-116.479
c-11.5205 0 -21.7607 8.95996 -21.7607 20.4805c0 11.5195 10.2402 20.4795 21.7607 20.4795h25.5996v28.1602h-126.72c-17.9199 0 -32 14.0801 -32 30.7197v186.881c0 16.6396 14.0801 30.7197 32 30.7197h318.72zM38.3994 174.08
c0 -16.6396 14.0801 -29.4404 30.7207 -29.4404c16.6396 0 30.7197 12.8008 30.7197 29.4404s-14.0801 29.4395 -30.7197 29.4395c-16.6406 0 -30.7207 -12.7998 -30.7207 -29.4395zM345.6 143.36v0v177.92h-308.479v-87.04c3.83984 1.2793 6.39941 2.55956 10.2393 3.83983
l3.84082 15.3604c0 2.55956 2.55957 5.11913 5.11914 3.83983h25.6006c2.55957 0 5.12012 -1.28027 5.12012 -3.83983l3.83984 -15.3604c8.95996 -2.56055 17.9199 -7.67969 24.3203 -14.0801l16.6396 5.1201c2.55957 1.28027 5.12012 3.05176e-05 6.40039 -2.56052
l12.7998 -21.7598c1.2793 -1.28027 1.2793 -5.12012 -1.28027 -6.39941l-12.7998 -10.2402c1.28027 -5.12012 1.28027 -8.95996 1.28027 -14.0801s0 -10.2402 -1.28027 -14.0801l12.7998 -10.2402c1.28027 -1.2793 2.55957 -3.83984 1.28027 -6.39941h194.56zM170.24 234.24
l7.67969 -3.83986c3.83984 2.55957 8.95996 6.39941 14.0801 7.67969l2.55957 8.95995c1.28027 1.28027 2.56055 2.55959 3.83984 2.55959h15.3604c2.55957 0 3.83984 -1.27931 3.83984 -2.55959l2.56055 -8.95995c5.11914 -1.28027 10.2393 -3.83984 14.0801 -7.67969
l10.2393 3.83986c1.28027 1.2793 2.56053 0 3.83983 -1.28027l7.68066 -12.7998c0 -1.28027 0 -2.56055 -1.28027 -3.83984l-7.6797 -6.40039c1.2793 -2.55957 1.27931 -5.12012 1.27931 -7.67969c0 -2.56055 -1.27931 -5.12012 -1.27931 -7.68066l7.6797 -6.39941
c1.28027 -1.28027 2.55957 -2.56055 1.28027 -3.83984l-7.68066 -12.8008c0 -1.2793 -2.55956 -1.2793 -3.83983 -1.2793l-8.95998 2.55957c-3.83984 -2.55957 -8.95996 -6.39941 -14.0801 -7.67969l-2.55957 -8.95996
c-1.28027 -1.28027 -2.56055 -2.56055 -3.83984 -2.56055h-15.3604c-2.55957 0 -3.83984 1.28027 -3.83984 2.56055l-2.56055 8.95996c-5.11914 1.28027 -10.2393 3.83984 -14.0791 7.67969l-8.95996 -2.55957c-1.28027 -1.28027 -2.56055 0 -3.84082 1.2793
l-7.67969 12.8008c0 1.2793 0 2.55957 1.28027 3.83984l7.67969 6.39941c-1.28027 2.56055 -1.28027 5.12012 -1.28027 7.68066c0 2.55957 1.28027 5.12012 1.28027 7.67969l-7.67969 6.40039c-1.28027 1.2793 -2.56055 2.55957 -1.28027 3.83984l7.67969 12.7998
c0 1.28027 2.56055 1.28027 3.84082 1.28027zM207.359 218.88c-10.2393 0 -17.9199 -7.67969 -17.9199 -17.9199s7.68066 -17.9199 17.9199 -17.9199c10.2402 0 17.9199 7.67969 17.9199 17.9199s-7.6797 17.9199 -17.9199 17.9199zM124.16 275.2l-5.12011 3.83984v2.55957
l5.12011 8.95996c0 1.28027 1.2793 1.28027 2.55958 1.28027l5.12012 -2.55957c2.55957 2.55957 6.40039 3.83984 10.2402 5.12012l1.2793 6.39941s1.28027 1.28027 2.56055 1.28027h10.2402c1.2793 0 2.55957 0 2.55957 -1.28027l1.28027 -6.39941
c3.83984 -1.28027 7.67969 -2.56055 10.2402 -5.12012l6.39941 2.55957c1.28027 0 2.56055 0 2.56055 -1.28027l5.11914 -10.2393c1.28027 -1.28027 1.28027 -1.28027 0 -2.56055l-5.11914 -3.83984v-5.12012v-5.12012l5.11914 -5.12012v-2.55957l-5.11914 -8.95998
c0 -1.28027 -1.28027 -1.28024 -2.56055 -1.28024l-6.39941 2.56052c-2.56055 -2.56055 -6.40039 -3.83983 -10.2402 -5.1201v-5.12012s-1.28027 -1.28027 -2.56055 -1.28027h-10.2393c-1.28027 0 -2.56055 0 -2.56055 1.28027l-1.28027 6.40039
c-3.83984 1.2793 -7.67969 2.55957 -10.2393 5.11914l-6.40039 -2.55959c-1.28027 0 -2.55958 0 -2.55958 1.28027l-5.12011 8.95998c-1.28027 1.2793 -1.28027 1.2793 0 2.55957l5.12011 5.12012v5.12012v5.12012zM152.319 281.6
c-7.67969 0 -12.7998 -5.11914 -12.7998 -11.5195s6.40039 -11.5205 12.7998 -11.5205c7.68066 0 12.8008 5.12012 12.8008 11.5205s-6.40039 11.5195 -12.8008 11.5195z" />
    <glyph glyph-name="occ8" unicode="&#xe018;" 
d="M376.32 335.36c10.2393 -24.3193 10.2393 -47.3594 -1.28027 -67.8398c-5.12012 -12.7998 -15.3604 -21.7598 -26.8799 -24.3203c0 -1.2793 0 -1.27928 0 -1.27928l-24.3203 -39.6807c0 -6.39941 0 -12.7998 -1.28027 -17.9199
c-3.83984 -23.04 -23.04 -43.5195 -47.3594 -51.1992c-8.95996 -11.5205 -17.9199 -23.04 -26.8799 -32c-32 -34.5605 -42.2402 -35.8408 -46.0801 -37.1201c-3.83984 0 -7.68066 0 -10.2402 2.55957c-8.95996 6.40039 -5.12012 20.4805 -3.83984 25.5996
c2.55957 8.96094 7.67969 20.4805 14.0801 33.2803c2.55957 6.40039 6.39941 12.7998 10.2402 20.4805c-3.84082 1.2793 -6.40039 1.2793 -10.2402 1.2793c-11.5205 0 -20.4805 -6.39941 -21.7598 -17.9199c-1.28027 -5.12012 0 -10.2393 0 -15.3594
s1.2793 -10.2402 0 -15.3604c-1.28027 -8.95996 -3.84082 -16.6396 -8.96094 -25.5996c-12.7998 -21.7607 -33.2793 -34.5605 -57.5996 -34.5605c-10.2402 0 -19.2002 2.56055 -29.4394 6.40039c-39.6807 15.3594 -69.1201 53.7598 -80.6406 103.68
c-1.28027 3.83984 -2.55957 7.67969 -2.55957 11.5205c-6.40039 46.0801 7.67969 92.1592 38.3994 128c32 35.8398 76.8008 57.5996 124.16 57.5996h5.12012c42.2402 -1.28027 83.2002 -20.4795 112.64 -49.9199c5.12012 -6.40039 11.5205 -14.0801 17.9199 -20.4805v0
c-2.55957 11.5205 3.84082 24.3203 16.6406 33.2803c8.95996 6.40039 17.9199 10.2402 25.5996 12.7998c10.2402 2.56055 19.2002 6.40039 25.6006 15.3604c1.2793 2.55957 2.55957 2.55957 5.12012 2.55957zM245.76 249.601
c2.56055 5.12012 3.83981 11.5205 2.56052 16.6396c-1.28027 6.40039 -5.1201 11.5205 -10.2402 14.0801c-2.55957 2.56055 -7.67967 3.83984 -11.5205 3.83984c-7.67969 0 -15.3594 -3.83984 -19.1992 -10.2393c-2.56055 -5.12012 -3.84082 -10.2402 -2.56055 -16.6406
c1.28027 -6.39941 5.12012 -11.5195 10.2402 -14.0801c2.55957 -2.55957 7.6797 -3.83984 11.5195 -3.83984c7.68066 0 15.3604 3.83984 19.2002 10.2402zM275.2 209.921c-20.4805 -30.7207 -39.6807 -61.4404 -52.4805 -87.04
c-7.67969 -12.7998 -12.7998 -24.3203 -15.3594 -33.2803c7.67969 5.12012 16.6397 14.0801 26.8799 25.5996c19.2002 21.7607 40.9599 48.6406 61.4394 79.3604c12.8008 19.2002 23.04 34.5605 33.2803 51.2002c-3.83984 1.28027 -7.67969 3.83986 -11.5195 6.39943
c-2.56055 1.28027 -5.12012 3.84081 -6.40039 5.1201c-12.7998 -14.0801 -24.3203 -30.7197 -35.8398 -47.3594zM72.96 209.921c7.67969 0 15.3604 3.83984 19.2002 10.2393c7.67969 10.2402 3.83984 24.3203 -7.67969 29.4404
c-2.56055 2.55957 -7.68066 3.83986 -11.5205 3.83986c-7.67969 0 -15.3604 -3.83986 -19.2002 -10.2402c-2.55957 -5.11914 -3.83984 -10.2393 -2.55957 -16.6396c1.28027 -5.12012 5.12011 -10.2402 10.2402 -12.7998c2.55957 -2.56055 7.67969 -3.83984 11.5195 -3.83984
zM49.9199 160.001c-3.83984 -5.12012 -5.12012 -10.2402 -2.55957 -15.3604c1.2793 -6.40039 5.12011 -11.5195 10.2393 -14.0801c2.56055 -2.55957 7.68067 -3.83984 11.5205 -3.83984c7.67969 0 15.3604 3.83984 19.2002 10.2402
c2.55957 5.12012 3.83984 10.2393 2.55957 16.6396c-1.28027 5.12012 -5.12012 10.2402 -10.2402 12.7998c-2.55957 2.56055 -7.67969 3.83984 -11.5195 3.83984c-7.67969 0 -15.3604 -3.83984 -19.2002 -10.2393zM122.88 293.121
c-3.83984 -5.12012 -5.12012 -11.5205 -3.83985 -16.6406c1.28027 -6.39941 5.12012 -11.5195 11.5195 -14.0801c2.56055 -2.55957 7.68066 -3.83984 11.5205 -3.83984c7.67969 0 15.3604 3.83984 19.2002 10.2402c6.39941 10.2402 2.55957 24.3203 -7.68066 30.7197
c-2.55957 2.56055 -7.67969 3.83984 -11.5195 3.83984c-7.67969 0 -15.3603 -3.83984 -19.2002 -10.2393z" />
    <glyph glyph-name="occ9" unicode="&#xe019;" 
d="M377.6 313.6c12.7998 -37.1201 5.12012 -79.3604 -25.5996 -108.8c-26.8799 -26.8799 -65.2803 -37.1201 -99.8398 -28.1602v0l-160 -160c-20.4805 -21.7598 -55.04 -21.7598 -76.8008 0c-21.7598 20.4795 -21.7598 55.04 0 76.7998l161.28 158.72v0
c-7.67969 34.5606 1.28027 72.96 28.1602 99.8408c29.4404 29.4395 72.96 37.1191 110.08 24.3193l-11.5205 -11.5195l-48.6396 -48.6406l11.5205 -51.1992l51.1992 -11.5205l48.6406 48.6396zM72.96 38.3994c8.95996 8.95996 8.95996 24.3203 0 34.5605
c-10.2402 8.95996 -25.6006 8.95996 -34.5605 0c-8.95996 -10.2402 -8.95996 -25.6006 0 -34.5605c10.2402 -8.95996 25.6006 -8.95996 34.5605 0z" />
    <glyph glyph-name="scout" unicode="&#xe001;" 
d="M288.337 103.073l-223.663 196.716v-272.168c0 24.2529 0 -2.69434 2.69434 -2.69434h2.69531h242.526v-61.9795h-274.863c-10.7793 0 -18.8633 2.69531 -26.9473 10.7793c-8.08496 8.08398 -10.7793 16.168 -10.7793 26.9473v406.905
c0 10.7783 5.38965 21.5576 13.4736 29.6416c5.38965 8.08496 16.1689 10.7793 26.9473 10.7793h525.474c21.5586 0 37.7266 -18.8633 37.7266 -40.4209v-94.3164h-35.0312v13.4746l-253.306 -223.664c-2.69434 -2.69434 -8.08398 -5.38867 -13.4736 -5.38867
s-10.7793 2.69434 -13.4736 5.38867zM70.0635 386.021c0 0 -8.08496 0 -5.38965 -5.38965c0 -2.69531 2.69434 -5.38965 2.69434 -5.38965l234.442 -207.495l239.832 210.189s2.69434 2.69531 2.69434 5.38965c-2.69434 2.69531 -5.38965 2.69531 -5.38965 2.69531h-468.884
zM730.273 130.021c10.7793 0 24.2529 -8.08496 24.2529 -21.5586s-10.7793 -21.5576 -21.5576 -21.5576h-10.7793c-10.7793 -56.5898 -53.8945 -105.095 -113.179 -113.179v-16.1689c0 -13.4736 -8.08496 -21.5576 -21.5576 -21.5576
c-13.4746 0 -21.5586 10.7793 -21.5586 21.5576v16.1689c-56.5889 10.7783 -105.095 53.8945 -113.179 113.179h-10.7793c-13.4736 0 -21.5576 8.08398 -21.5576 21.5576s10.7793 21.5586 21.5576 21.5586h10.7793c10.7793 56.5889 53.8945 105.095 113.179 113.179v21.5576
c0 10.7793 5.38965 21.5576 18.8633 21.5576s21.5576 -10.7783 21.5576 -21.5576v-21.5576c56.5898 -10.7793 105.095 -53.8945 113.18 -113.179h10.7783zM606.315 19.5371c37.7266 8.08398 64.6738 35.0312 75.4531 70.0625h-43.1162
c-13.4736 0 -21.5576 8.08496 -21.5576 21.5586s10.7793 21.5576 21.5576 21.5576h43.1162c-5.38965 35.0312 -35.0322 64.6738 -72.7578 72.7578v-26.9473c0 -13.4736 -8.08496 -21.5576 -21.5576 -21.5576c-13.4746 0 -21.5586 10.7783 -21.5586 21.5576v29.6416
c-35.0312 -5.38867 -64.6738 -35.0312 -72.7578 -72.7578h40.4209c13.4736 0 21.5576 -8.08398 21.5576 -21.5576s-10.7783 -21.5576 -21.5576 -21.5576h-40.4209c5.38965 -35.0322 35.0312 -64.6738 72.7578 -72.7578v35.0312c0 10.7793 5.38965 21.5576 18.8633 21.5576
s21.5576 -10.7783 21.5576 -21.5576v-35.0312z" />
    <glyph glyph-name="tag" unicode="&#xe008;" 
d="M500.623 114.25l-166.875 -166.875c-7.58594 -7.58594 -18.9629 -11.3828 -30.3398 -11.3828s-22.7559 3.78906 -30.3398 11.3828l-242.729 242.727c-18.9629 15.1641 -30.3398 49.3047 -30.3398 72.0547v140.328c0 22.75 18.9629 41.7188 41.7188 41.7188h140.326
c22.7539 0 56.8887 -15.1719 75.8516 -30.3438l242.727 -242.727c7.58594 -7.58594 11.377 -18.9688 11.377 -30.3438c0 -11.3828 -3.79102 -18.9531 -11.377 -26.5391zM109.986 383.523c-22.7539 0 -41.7168 -18.9609 -41.7168 -41.7188
c0 -22.75 18.9629 -41.7188 41.7168 -41.7188s41.7168 18.9688 41.7168 41.7188c0 22.7578 -18.9629 41.7188 -41.7168 41.7188zM629.57 114.25l-166.875 -166.875c-7.58594 -7.58594 -18.9629 -11.3828 -30.3399 -11.3828c-18.9648 0 -26.5488 7.58594 -37.9277 18.9609
l159.291 159.289c7.58398 7.58594 11.377 18.9609 11.377 30.3438c0 11.375 -3.79297 22.75 -11.377 30.3438l-242.729 242.727c-18.9629 18.9609 -49.3027 30.3438 -75.8516 30.3438h75.8516c22.7559 0 56.8906 -15.1719 75.8535 -30.3438l242.727 -242.727
c7.58594 -7.58594 11.377 -18.9688 11.377 -30.3438c0 -11.3828 -3.79102 -22.75 -11.377 -30.3359z" />
    <glyph glyph-name="train" unicode="&#xe005;" 
d="M215.579 448c118.568 0 215.579 -13.4736 215.579 -107.789v-256c0 -51.2002 -43.1162 -94.3164 -94.3164 -94.3164l40.4209 -40.4209v-13.4736h-323.368v13.4736l40.4209 40.4209c-51.1992 0 -94.3154 43.1162 -94.3154 94.3164v256
c0 94.3154 97.0107 107.789 215.579 107.789zM94.3154 43.7891c21.5586 0 40.4219 18.8633 40.4219 40.4219c0 21.5576 -18.8633 40.4209 -40.4219 40.4209c-21.5576 0 -40.4209 -18.8633 -40.4209 -40.4209c0 -21.5586 18.8633 -40.4219 40.4209 -40.4219zM188.632 205.474
v134.737h-134.737v-134.737h134.737zM336.842 43.7891c21.5586 0 40.4209 18.8633 40.4209 40.4219c0 21.5576 -18.8623 40.4209 -40.4209 40.4209c-21.5576 0 -40.4209 -18.8633 -40.4209 -40.4209c0 -21.5586 18.8633 -40.4219 40.4209 -40.4219zM377.263 205.474v134.737
h-134.736v-134.737h134.736z" />
  </font>
</defs>
</svg>
